<svg width="291" height="69" viewBox="0 0 291 69" fill="none" xmlns="http://www.w3.org/2000/svg">
<path d="M20.391 0.928987C24.0577 0.595654 27.0681 0.798779 29.4327 1.53315C31.7921 2.27274 33.6046 3.38732 34.8702 4.88732C36.1306 6.3769 36.9014 8.09045 37.1827 10.0332C37.4744 11.9811 37.3702 14.0019 36.8702 16.0957C36.3806 18.1946 35.5681 20.2102 34.4327 22.1373C33.3077 24.054 31.9535 25.7519 30.3702 27.2207C28.7869 28.6946 27.0473 29.7519 25.1619 30.3873C27.4535 29.9446 29.2869 30.0644 30.6619 30.7415C32.0473 31.4238 33.016 32.528 33.5577 34.054C34.1098 35.5852 34.3181 37.3769 34.1827 39.429C34.0577 41.4863 33.641 43.6477 32.9327 45.9082C32.2348 48.1738 31.3129 50.4186 30.1619 52.6373C29.0056 54.8717 27.6879 56.9186 26.2035 58.7832C24.7139 60.6582 23.1306 62.1894 21.4535 63.3873C19.7712 64.58 18.0421 65.2884 16.266 65.5123C14.9744 65.6634 13.8337 65.3873 12.8494 64.679C11.8754 63.9811 11.1306 62.9811 10.6202 61.679C10.1046 60.3873 9.87541 58.9342 9.9327 57.3248C10.0004 55.7259 10.391 54.1009 11.0994 52.4498C11.8181 50.8144 12.9431 49.2727 14.4744 47.8248C16.0004 46.3665 17.9952 45.1686 20.4535 44.2207C21.1723 43.9602 21.6931 43.929 22.016 44.1373C22.3337 44.3457 22.4014 44.6321 22.2244 44.9915C22.0577 45.3405 21.5994 45.6113 20.8494 45.804C18.7348 46.2936 16.9848 47.1373 15.5994 48.3457C14.2244 49.554 13.1723 50.929 12.4535 52.4707C11.7452 54.0227 11.3337 55.5748 11.2244 57.1165C11.1098 58.6686 11.2556 60.054 11.6619 61.2623C12.0785 62.4707 12.7296 63.3457 13.6202 63.8873C14.5056 64.4394 15.5785 64.455 16.8285 63.929C18.0785 63.3977 19.2296 62.4602 20.2869 61.1165C21.3389 59.7832 22.266 58.1686 23.0577 56.2832C23.8494 54.3925 24.4587 52.3977 24.891 50.304C25.3337 48.2102 25.5681 46.1321 25.5994 44.0748C25.641 42.0227 25.4327 40.1477 24.9744 38.4498C24.5264 36.7415 23.7921 35.3561 22.766 34.2832C21.7504 33.1998 20.4119 32.5957 18.7452 32.4707C17.0889 32.3352 15.0681 32.8352 12.6827 33.9707C12.2348 36.6113 11.766 39.2571 11.266 41.9082C10.7764 44.5488 10.3077 47.0436 9.84937 49.3873C9.40145 51.7207 9.00041 53.7519 8.64103 55.4915C8.27645 57.2259 8.00562 58.5227 7.82853 59.3873C7.70353 59.804 7.31811 60.2467 6.6827 60.7207C6.04207 61.1894 5.3077 61.554 4.47437 61.804C3.64103 62.054 2.87541 62.0332 2.1827 61.7415C1.48478 61.4602 1.04207 60.7519 0.849365 59.6165L9.91187 6.42899C9.9952 6.01232 10.4119 5.52795 11.1619 4.97065C11.9119 4.40295 12.7764 3.8769 13.766 3.38732C14.7504 2.88732 15.6462 2.52274 16.4535 2.28315C17.2712 2.03315 17.7556 2.02274 17.9119 2.24149L12.9119 32.554C14.4223 31.8769 15.8702 31.3769 17.2452 31.054C18.6306 30.7207 19.9431 30.554 21.1827 30.554C24.516 29.278 27.2869 27.6165 29.4952 25.5748C31.7035 23.5332 33.339 21.3352 34.4119 18.9707C35.4952 16.6113 36.0004 14.3144 35.9327 12.0748C35.8754 9.82482 35.2348 7.84045 34.016 6.11649C32.7921 4.39774 30.9848 3.15815 28.5994 2.40815C26.2244 1.65815 23.266 1.6269 19.7244 2.30399C16.4744 2.90295 13.7556 3.96545 11.5785 5.49149C9.41187 7.02274 7.6827 8.79878 6.39103 10.8248C5.10978 12.8404 4.18791 14.8977 3.6202 16.9915C3.06291 19.0904 2.77124 21.0332 2.7452 22.8248C2.72957 24.6165 2.91187 26.0644 3.28687 27.1582C3.50562 27.6894 3.51603 28.0123 3.3077 28.1373C3.09937 28.2519 2.85457 28.2207 2.57853 28.054C2.29728 27.8769 2.1202 27.6738 2.03687 27.4498C1.7452 26.5488 1.56291 25.3352 1.4952 23.804C1.43791 22.2623 1.56811 20.5696 1.89103 18.7207C2.22437 16.8769 2.79207 15.0071 3.59937 13.1165C4.40145 11.2311 5.53687 9.44461 6.9952 7.76232C8.45353 6.08524 10.2712 4.63732 12.4535 3.42899C14.6462 2.22065 17.2921 1.38732 20.391 0.928987Z" fill="white"/>
<path d="M60.3666 36.1165C59.8353 37.3248 59.2103 38.6686 58.4916 40.1373C57.7833 41.6113 56.9603 43.0748 56.0333 44.5332C55.1166 45.9811 54.1166 47.2727 53.0333 48.4082C51.9603 49.5332 50.8249 50.3665 49.6166 50.9082C48.4083 51.4342 47.1218 51.5019 45.7624 51.1165C44.0228 50.6321 42.6218 49.7727 41.5541 48.5332C40.4968 47.2832 39.7676 45.7936 39.3666 44.054C38.9499 42.304 38.8249 40.4707 38.9916 38.554C39.1583 36.6269 39.5801 34.7571 40.2624 32.9498C40.9812 31.0227 41.9291 29.4186 43.0958 28.1373C44.2624 26.8457 45.5228 25.9029 46.8874 25.304C48.2468 24.6946 49.5541 24.4654 50.8041 24.6165C51.7051 24.6894 52.3458 25.1321 52.7208 25.9498C53.0958 26.7571 53.226 27.7363 53.1166 28.8873C53.002 30.0436 52.6843 31.1946 52.1583 32.3457C51.627 33.5019 50.9291 34.4915 50.0541 35.3248C49.1895 36.1582 48.1791 36.6477 47.0124 36.7832C46.9291 37.0644 46.8145 37.6998 46.6791 38.6998C46.5541 39.6998 46.4395 40.8457 46.3458 42.1373C46.2624 43.4186 46.2051 44.6582 46.1791 45.8665C46.1635 47.0748 46.2312 48.0696 46.3874 48.8457C46.5385 49.6113 46.8041 49.9602 47.1791 49.8873C48.1895 50.179 49.3562 49.8196 50.6791 48.804C52.0124 47.7936 53.4187 46.2102 54.9083 44.054C56.3926 41.9029 57.8562 39.2571 59.3041 36.1165C59.5645 35.3561 59.8666 35.0332 60.1999 35.1582C60.5437 35.2727 60.601 35.5904 60.3666 36.1165ZM47.0541 35.3873C47.8458 35.304 48.5593 34.9238 49.1999 34.2415C49.851 33.5644 50.3926 32.7415 50.8249 31.7832C51.252 30.8248 51.5645 29.8821 51.7624 28.9498C51.9551 28.0227 51.9916 27.2832 51.8666 26.7415C51.752 26.1894 51.476 26.0071 51.0333 26.1998C50.3093 26.4654 49.5958 27.4498 48.8874 29.1582C48.1895 30.8561 47.5801 32.929 47.0541 35.3873Z" fill="white"/>
<path d="M105.572 36.1165C103.374 40.7988 101.28 44.3144 99.2804 46.6582C97.2804 48.9915 95.1241 50.0852 92.8221 49.929C91.3064 49.8196 90.1554 49.3873 89.3637 48.6373C88.5721 47.8769 88.0408 46.9238 87.7804 45.7832C87.5148 44.6321 87.4314 43.3769 87.5304 42.0123C87.6241 40.6529 87.8116 39.2936 88.0929 37.929C88.3689 36.5696 88.6658 35.304 88.9887 34.1373C89.3221 32.9602 89.5408 32.0123 89.6554 31.304C89.8741 30.0957 90.0773 28.9863 90.2596 27.9707C90.4523 26.9446 90.52 26.1894 90.4679 25.6998C90.4106 25.1998 90.0981 25.1582 89.5304 25.5748C89.0408 25.9498 88.4314 26.6998 87.6971 27.8248C86.9575 28.9394 86.1554 30.2832 85.2804 31.8665C84.4158 33.4498 83.5304 35.1373 82.6137 36.929C81.7075 38.7207 80.8116 40.5019 79.9262 42.2623C79.0512 44.0123 78.2283 45.6373 77.4679 47.1373C76.7179 48.6269 76.0773 49.8196 75.5512 50.7207C74.1033 51.0696 73.0512 50.929 72.3846 50.304C71.7283 49.679 71.3533 48.7623 71.2596 47.554C71.1762 46.3457 71.2648 44.9707 71.5304 43.429C71.7908 41.8769 72.1398 40.3144 72.5721 38.7415C72.9991 37.1738 73.4106 35.7415 73.8012 34.4498C74.2023 33.1477 74.4887 32.1165 74.6554 31.3665C74.8325 30.6061 74.7908 30.2779 74.5304 30.3873C73.8898 30.6529 73.2023 31.3248 72.4679 32.4082C71.7283 33.4811 70.9783 34.7988 70.2179 36.3665C69.4679 37.9394 68.7231 39.6321 67.9887 41.4498C67.2491 43.2571 66.5564 45.0696 65.9054 46.8873C65.2648 48.6946 64.7023 50.3665 64.2179 51.9082C64.0616 52.4498 63.6971 52.9602 63.1137 53.4498C62.5304 53.9342 61.8689 54.33 61.1346 54.6373C60.395 54.9394 59.7023 55.0957 59.0512 55.0957C58.3846 55.0957 57.8637 54.8717 57.4887 54.429C57.1033 53.9967 57.0044 53.2936 57.1971 52.3248C57.27 51.9342 57.4054 50.8665 57.6137 49.1165C57.8221 47.3561 58.0721 45.1946 58.3637 42.6373C58.645 40.0696 58.895 37.3821 59.1137 34.5748C59.4158 33.7832 59.8689 33.0332 60.4679 32.3248C61.0773 31.6061 61.7491 31.0748 62.4887 30.7415C63.2231 30.3977 63.9054 30.3248 64.5304 30.5332C65.1554 30.7415 65.6346 31.3561 65.9679 32.3665C65.7023 34.9811 65.3689 37.4602 64.9679 39.804C64.5773 42.1373 64.2387 44.1061 63.9471 45.6998C63.6658 47.2832 63.5512 48.2779 63.5929 48.679C65.02 45.054 66.27 41.8873 67.3429 39.179C68.4262 36.4602 69.4991 34.2102 70.5721 32.429C71.6554 30.6529 72.895 29.3665 74.3012 28.5748C74.52 28.6165 74.9158 28.6269 75.4887 28.5957C76.0564 28.554 76.6189 28.6582 77.1762 28.9082C77.7439 29.1477 78.1241 29.7727 78.3221 30.7832C78.5148 31.6165 78.5512 32.6321 78.4262 33.8248C78.3116 35.0071 78.145 36.2519 77.9262 37.554C77.7023 38.8613 77.4887 40.1165 77.2804 41.3248C77.0721 42.5332 76.9262 43.5904 76.8429 44.4915C77.6033 43.1061 78.4366 41.4707 79.3429 39.5957C80.2439 37.7207 81.1971 35.8248 82.1971 33.9082C83.1971 31.9811 84.2023 30.1946 85.2179 28.554C86.2439 26.9186 87.2283 25.5957 88.1762 24.5957C89.1189 23.5957 90.0096 23.1321 90.8429 23.1998C91.52 23.2415 92.3116 23.3769 93.2179 23.5957C94.1189 23.8196 94.9106 24.2415 95.5929 24.8665C96.27 25.4915 96.6137 26.4654 96.6137 27.7832C96.6137 28.4654 96.4679 29.429 96.1762 30.679C95.895 31.929 95.5564 33.3352 95.1554 34.8873C94.7648 36.429 94.3846 37.9863 94.0096 39.554C93.6346 41.1113 93.3273 42.5644 93.0929 43.9082C92.8689 45.2415 92.8064 46.3248 92.9054 47.1582C92.9991 47.9915 93.3325 48.4446 93.9054 48.5123C94.4731 48.554 95.27 48.2363 96.3012 47.554C97.3429 46.8769 98.5512 45.6321 99.9262 43.8248C101.312 42.0071 102.78 39.4394 104.322 36.1165C104.541 35.5488 104.864 35.2779 105.28 35.304C105.697 35.3196 105.791 35.5904 105.572 36.1165Z" fill="white"/>
<path d="M110.473 37.8665C110.14 37.7988 109.957 37.554 109.931 37.1373C109.916 36.7207 110.14 36.3821 110.598 36.1165H120.16C120.546 36.2727 120.728 36.554 120.702 36.9707C120.686 37.3873 120.431 37.6894 119.931 37.8665H110.473Z" fill="white"/>
<path d="M134.711 58.0957C133.211 58.5384 131.898 58.4498 130.773 57.8248C129.659 57.2102 128.742 56.2259 128.023 54.8665C127.315 53.5019 126.763 51.9082 126.378 50.0748C126.003 48.2415 125.763 46.3248 125.648 44.3248C125.539 42.3248 125.56 40.3769 125.711 38.4707C125.867 36.554 126.096 34.8613 126.398 33.3873C126.773 31.6269 127.419 30.3665 128.336 29.6165C129.263 28.8561 130.237 28.5227 131.253 28.6165C132.279 28.6998 133.148 29.0957 133.857 29.804C134.576 30.5019 134.94 31.3977 134.94 32.4915C134.94 33.0227 134.867 33.9654 134.732 35.3248C134.607 36.6894 134.466 38.2779 134.315 40.0957C134.159 41.9029 134.029 43.7571 133.919 45.6582C133.805 47.5644 133.753 49.3248 133.753 50.9498C133.753 52.5748 133.836 53.8873 134.003 54.8873C134.18 55.8873 134.471 56.3873 134.878 56.3873C135.711 56.3561 136.633 55.3561 137.648 53.3873C138.675 51.429 140.076 48.4654 141.857 44.4915C140.451 43.5488 139.409 42.3613 138.732 40.929C138.05 39.5019 137.675 38.0123 137.607 36.4707C137.534 34.9186 137.742 33.4863 138.232 32.179C138.716 30.8769 139.43 29.8769 140.378 29.179C141.32 28.4707 142.471 28.2727 143.836 28.5748C145.154 28.8404 145.94 29.7415 146.19 31.2832C146.44 32.8144 146.294 34.7102 145.753 36.9707C145.221 39.2363 144.43 41.6113 143.378 44.0957C144.32 44.4446 145.315 44.4602 146.357 44.1373C147.398 43.804 148.43 43.0071 149.461 41.7415C150.503 40.4811 151.492 38.6061 152.44 36.1165C152.966 35.2832 153.315 35.0019 153.482 35.2623C153.659 35.5279 153.695 35.8665 153.586 36.2832C153.237 37.4238 152.716 38.6165 152.023 39.8665C151.326 41.1061 150.513 42.2154 149.586 43.1998C148.654 44.1738 147.617 44.8665 146.482 45.2832C145.357 45.6998 144.175 45.6477 142.94 45.1165C141.992 47.3561 141.055 49.4082 140.128 51.2832C139.195 53.1425 138.284 54.679 137.398 55.8873C136.523 57.0957 135.628 57.83 134.711 58.0957ZM143.211 30.2832C142.612 29.9811 142.034 30.0748 141.482 30.5748C140.94 31.0644 140.492 31.7988 140.148 32.7832C139.815 33.7571 139.633 34.8769 139.607 36.1373C139.591 37.4029 139.794 38.679 140.211 39.9707C140.628 41.2519 141.326 42.4186 142.315 43.4707C142.841 42.3769 143.32 41.1582 143.753 39.8248C144.18 38.4811 144.487 37.1477 144.669 35.8248C144.862 34.5071 144.857 33.3457 144.648 32.3457C144.451 31.3457 143.971 30.6582 143.211 30.2832Z" fill="white"/>
<path d="M170.97 36.054C170.397 37.679 169.725 39.3561 168.949 41.0748C168.168 42.7832 167.282 44.4186 166.282 45.9707C165.282 47.5123 164.199 48.8561 163.032 49.9915C161.866 51.1321 160.6 51.9082 159.241 52.3248C157.532 52.6998 156.121 52.5332 155.012 51.8248C153.897 51.1321 153.053 50.0748 152.47 48.6582C151.887 47.2415 151.522 45.6373 151.366 43.8457C151.215 42.054 151.272 40.2311 151.532 38.3665C151.798 36.4915 152.23 34.7571 152.824 33.1582C153.501 31.6894 154.392 30.6582 155.491 30.0748C156.585 29.4915 157.637 29.2571 158.637 29.3665C159.637 29.4811 160.407 29.8665 160.949 30.5332C161.501 31.1998 161.574 32.0748 161.157 33.1582C160.741 34.2988 160.293 35.6321 159.824 37.1582C159.35 38.6894 158.928 40.2519 158.553 41.8457C158.178 43.429 157.892 44.903 157.699 46.2623C157.517 47.6113 157.491 48.7155 157.616 49.5748C157.751 50.4238 158.085 50.8665 158.616 50.9082C159.366 50.9394 160.189 50.5957 161.095 49.8873C162.012 49.1686 162.918 48.2155 163.824 47.0332C164.725 45.8405 165.579 44.5644 166.387 43.1998C167.204 41.8405 167.907 40.528 168.491 39.2623C169.074 38.0019 169.496 36.9498 169.762 36.1165C169.954 35.6582 170.246 35.403 170.637 35.3457C171.038 35.2936 171.147 35.528 170.97 36.054ZM159.866 26.5332C158.991 26.9498 158.366 27.0488 157.991 26.8248C157.616 26.6061 157.434 26.2102 157.449 25.6373C157.46 25.0696 157.605 24.4394 157.887 23.7415C158.178 23.0332 158.564 22.4186 159.053 21.8873C159.553 21.3613 160.1 21.0644 160.699 20.9915C161.532 20.8405 162.1 21.1165 162.407 21.8248C162.71 22.5227 162.663 23.3352 162.262 24.2623C161.871 25.179 161.074 25.9394 159.866 26.5332Z" fill="white"/>
<path d="M205.797 36.1165C203.714 40.1165 201.703 43.2519 199.776 45.5123C197.86 47.7779 196.172 49.3665 194.714 50.2832C193.256 51.1894 192.193 51.6373 191.526 51.6373C189.703 51.6373 188.36 51.1686 187.485 50.2207C186.62 49.2779 186.099 48.0488 185.922 46.5332C185.756 45.0227 185.802 43.3613 186.068 41.554C186.344 39.7363 186.703 37.9446 187.151 36.179C187.61 34.4029 188.047 32.7832 188.464 31.3248C188.881 29.8665 189.131 28.7311 189.214 27.9082C189.308 27.0748 189.136 26.7154 188.693 26.8248C187.745 27.0488 186.474 28.0904 184.881 29.9498C183.297 31.7988 181.552 34.6113 179.651 38.3873C177.745 42.1686 175.849 47.0748 173.964 53.1165C173.808 53.5592 173.401 53.9134 172.735 54.179C172.078 54.4394 171.37 54.554 170.61 54.5123C169.86 54.4811 169.245 54.2467 168.756 53.804C168.256 53.3717 168.105 52.705 168.297 51.804C168.297 51.7623 168.318 51.3352 168.36 50.5123C168.391 49.679 168.443 48.5957 168.526 47.2623C168.599 45.9186 168.683 44.4498 168.776 42.8665C168.875 41.2727 169 39.7102 169.151 38.179C169.292 36.6529 169.459 35.2832 169.651 34.0748C169.802 33.1321 170.245 32.3457 170.985 31.7207C171.719 31.0957 172.511 30.6998 173.36 30.5332C174.203 30.3665 174.922 30.4707 175.506 30.8457C176.099 31.2207 176.323 31.9394 176.172 32.9915C176.089 33.6061 175.943 34.5644 175.735 35.8665C175.526 37.1582 175.297 38.6061 175.047 40.1998C174.808 41.7832 174.589 43.3144 174.381 44.7832C174.172 46.2571 173.99 47.4863 173.839 48.4707C173.683 49.4446 173.61 49.9498 173.61 49.9915C174.526 47.0488 175.589 44.179 176.797 41.3873C178.006 38.5957 179.282 36.0436 180.631 33.7207C181.99 31.3873 183.37 29.4811 184.776 27.9915C186.177 26.4915 187.516 25.5957 188.797 25.304C190.339 24.9186 191.474 25.1061 192.214 25.8665C192.964 26.6165 193.422 27.7311 193.589 29.1998C193.756 30.6738 193.735 32.3457 193.526 34.2207C193.318 36.0852 193.026 37.9811 192.651 39.9082C192.276 41.8404 191.922 43.6113 191.589 45.2207C191.266 46.8196 191.089 48.1113 191.047 49.0957C191.016 50.0696 191.235 50.5332 191.693 50.4915C192.703 50.3821 193.881 49.7154 195.214 48.4915C196.558 47.2727 198.026 45.5904 199.61 43.4498C201.203 41.3144 202.907 38.8665 204.714 36.1165C204.823 35.5904 205.094 35.3248 205.526 35.3248C205.969 35.3248 206.058 35.5904 205.797 36.1165Z" fill="white"/>
<path d="M240.267 0.824822C241.184 1.04878 241.705 1.69982 241.83 2.78316C241.965 3.85607 241.814 5.22066 241.372 6.88732C240.939 8.55399 240.299 10.3977 239.455 12.4082C238.606 14.4238 237.622 16.5071 236.497 18.6582C235.382 20.8144 234.226 22.9238 233.017 24.9915C231.809 27.0488 230.622 28.9446 229.455 30.679C229.299 32.1113 229.049 33.9186 228.705 36.0957C228.372 38.2623 227.997 40.6113 227.58 43.1373C227.163 45.6686 226.767 48.1582 226.392 50.6165C226.017 53.0748 225.705 55.3144 225.455 57.3457C225.215 59.3873 225.106 61.0019 225.122 62.1998C225.132 63.3925 225.335 63.9707 225.726 63.929C226.736 63.8144 227.799 62.9811 228.913 61.429C230.023 59.8873 231.189 57.83 232.413 55.2623C233.648 52.6894 234.96 49.7727 236.351 46.4915C237.752 43.1998 239.21 39.7415 240.726 36.1165C241.069 35.3248 241.377 35.0019 241.642 35.1373C241.903 35.2623 241.939 35.5904 241.747 36.1165C241.523 36.6477 241.174 37.5696 240.705 38.8873C240.231 40.2102 239.642 41.7727 238.934 43.5748C238.236 45.3665 237.476 47.2623 236.642 49.2623C235.819 51.2623 234.939 53.2207 233.997 55.1373C233.049 57.0644 232.085 58.804 231.101 60.3457C230.111 61.8977 229.127 63.1269 228.142 64.0332C227.168 64.9498 226.231 65.3873 225.33 65.3457C223.924 65.2623 222.632 64.2727 221.455 62.3873C220.288 60.5123 219.497 57.7675 219.08 54.1582C218.674 50.5488 218.851 46.1165 219.601 40.8665C217.517 44.3144 215.731 46.8665 214.247 48.5332C212.757 50.1894 211.476 51.1998 210.392 51.5748C209.319 51.9498 208.351 51.9707 207.476 51.6373C206.903 51.4134 206.273 50.9655 205.58 50.2832C204.882 49.6061 204.309 48.653 203.851 47.429C203.392 46.1946 203.179 44.6529 203.205 42.804C203.221 40.9446 203.642 38.7154 204.476 36.1165C205.043 34.3821 205.814 32.9498 206.788 31.8248C207.773 30.6894 208.851 29.8196 210.017 29.2207C211.194 28.6113 212.33 28.2571 213.413 28.1582C214.507 28.0644 215.439 28.1894 216.205 28.5332C217.038 28.9082 217.564 29.5071 217.788 30.3248C218.007 31.1321 217.986 32.0071 217.726 32.9498C217.46 33.8977 217.007 34.7988 216.372 35.6582C216.215 35.8561 215.981 35.9498 215.663 35.9498C215.34 35.9498 215.127 35.8404 215.017 35.6165C214.903 35.3821 215.038 35.0748 215.413 34.6998C215.523 34.5904 215.694 34.2727 215.934 33.7415C216.184 33.2154 216.382 32.6321 216.538 31.9915C216.689 31.3404 216.71 30.7936 216.601 30.3457C216.486 29.8873 216.148 29.6582 215.58 29.6582C215.163 29.6582 214.648 30.1321 214.038 31.0748C213.439 32.0227 212.809 33.2519 212.142 34.7623C211.486 36.2623 210.877 37.8769 210.309 39.5957C209.736 41.3196 209.267 42.9707 208.892 44.554C208.517 46.1373 208.299 47.4915 208.247 48.6165C208.189 49.7311 208.372 50.3977 208.788 50.6165C209.757 51.1894 211.163 50.3977 212.997 48.2415C214.83 46.0905 216.997 43.0488 219.497 39.1165C220.705 29.1477 222.257 21.2102 224.163 15.304C226.064 9.38732 228.356 5.27274 231.038 2.94982C233.715 0.632114 236.793 -0.0762194 240.267 0.824822ZM229.684 28.4707C231.043 26.054 232.382 23.6061 233.705 21.1165C235.023 18.6165 236.215 16.2363 237.288 13.9707C238.372 11.7102 239.231 9.68941 239.872 7.90816C240.523 6.13211 240.856 4.71024 240.872 3.63732C240.882 2.55399 240.46 1.99149 239.601 1.94982C238.418 1.88211 237.231 2.96545 236.038 5.19982C234.856 7.42378 233.726 10.5332 232.642 14.5332C231.569 18.5332 230.585 23.179 229.684 28.4707Z" fill="white"/>
<path d="M248.695 53.554C249.679 53.6373 250.679 53.1842 251.695 52.1998C252.721 51.2155 253.695 49.8457 254.611 48.0957C255.539 46.3457 256.325 44.3769 256.966 42.179C255.799 41.8769 254.882 41.2988 254.216 40.4498C253.559 39.6061 253.143 38.6582 252.966 37.6165C252.799 36.5748 252.851 35.6061 253.132 34.6998C253.424 33.7988 253.914 33.1321 254.611 32.6998C255.32 32.2571 256.2 32.2207 257.257 32.5957C257.716 32.7519 258.158 33.2363 258.591 34.054C259.018 34.8613 259.283 35.8873 259.382 37.1373C259.476 38.3873 259.2 39.7623 258.549 41.2623C259.799 41.5019 261.091 41.1998 262.424 40.3665C263.768 39.5332 264.971 38.1165 266.028 36.1165C266.414 35.3977 266.778 35.1321 267.111 35.3248C267.455 35.5071 267.492 35.7727 267.216 36.1165C266.424 38.1582 265.153 39.7519 263.403 40.8873C261.653 42.0123 259.887 42.5332 258.111 42.4498C257.471 44.7571 256.601 46.8821 255.507 48.8248C254.408 50.7727 253.164 52.2936 251.778 53.4082C250.403 54.5332 248.966 55.0175 247.466 54.8665C246.018 54.7102 244.778 54.1165 243.736 53.0748C242.705 52.0332 241.882 50.7102 241.257 49.0957C240.632 47.4707 240.236 45.6894 240.07 43.7415C239.893 41.7988 239.94 39.8405 240.216 37.8665C240.398 36.5905 240.726 35.1894 241.216 33.6582C241.716 32.1165 242.341 30.6113 243.091 29.1373C243.851 27.6686 244.762 26.3613 245.82 25.2207C246.872 24.0696 248.059 23.2207 249.382 22.679C250.7 22.1269 252.174 22.0123 253.799 22.3457C254.591 22.5019 255.304 22.8613 255.945 23.429C256.596 24.0019 257.08 24.6738 257.403 25.4498C257.721 26.2155 257.762 27.0436 257.528 27.929C257.304 28.8196 256.721 29.6582 255.778 30.4498C255.622 30.6061 255.372 30.6738 255.028 30.6582C254.695 30.6321 254.455 30.5436 254.32 30.3873C254.195 30.2363 254.325 30.0488 254.716 29.8248C255.507 29.2988 255.986 28.6946 256.153 28.0123C256.32 27.3352 256.268 26.6738 256.007 26.0332C255.742 25.3977 255.351 24.8665 254.841 24.4498C254.341 24.0332 253.804 23.8457 253.236 23.8873C252.403 24.153 251.601 24.8665 250.841 26.0332C250.091 27.1998 249.408 28.653 248.799 30.3873C248.2 32.1269 247.695 34.0019 247.278 36.0123C246.861 38.0123 246.554 40.0123 246.361 42.0123C246.179 44.0123 246.122 45.8561 246.195 47.5332C246.278 49.2155 246.512 50.5905 246.903 51.6582C247.304 52.7415 247.903 53.3717 248.695 53.554ZM256.924 33.679C256.158 33.528 255.518 33.7415 255.007 34.3248C254.507 34.9082 254.216 35.6582 254.132 36.5748C254.059 37.4811 254.278 38.3561 254.778 39.1998C255.289 40.0488 256.195 40.679 257.486 41.0957C257.861 40.2363 258.08 39.2519 258.153 38.1373C258.236 37.0123 258.174 36.0071 257.966 35.1165C257.757 34.2311 257.408 33.7519 256.924 33.679Z" fill="white"/>
<path d="M273.453 67.6165C271.453 68.4759 269.77 68.6582 268.411 68.1582C267.046 67.6686 266.052 66.7259 265.411 65.3248C264.76 63.9342 264.531 62.3144 264.723 60.4707C264.921 58.6217 265.572 56.7832 266.682 54.9498C267.791 53.1165 269.39 51.5175 271.473 50.1582C270.973 48.4655 270.416 46.9863 269.807 45.7207C269.208 44.4602 268.625 43.278 268.057 42.179C267.5 41.0852 267.02 39.9446 266.619 38.7623C266.229 37.5696 265.994 36.2155 265.911 34.6998C265.802 31.5644 266.265 28.8769 267.307 26.6373C268.348 24.3873 269.583 22.5644 271.015 21.1582C272.526 19.7311 274.026 18.8821 275.515 18.6165C277 18.3561 278.354 18.528 279.578 19.1373C280.812 19.7363 281.796 20.6165 282.536 21.7832C283.27 22.9498 283.64 24.2571 283.64 25.6998C283.64 26.4915 283.505 27.0488 283.244 27.3665C282.979 27.6894 282.723 27.8144 282.473 27.7415C282.234 27.6582 282.13 27.4498 282.161 27.1165C282.395 25.4498 282.203 24.054 281.578 22.929C280.953 21.7936 280.109 20.9655 279.057 20.4498C278 19.9394 276.895 19.804 275.744 20.054C274.588 20.304 273.598 20.9915 272.765 22.1165C271.484 23.8977 270.817 25.5748 270.765 27.1582C270.708 28.7415 271.015 30.304 271.682 31.8457C272.359 33.3769 273.234 34.8873 274.307 36.3873C275.39 37.8769 276.432 39.3873 277.432 40.929C278.432 42.4707 279.203 44.0748 279.744 45.7415C280.562 45.2155 281.453 44.6321 282.411 43.9915C283.38 43.3561 284.442 42.4394 285.598 41.2415C286.75 40.0488 288.026 38.3405 289.432 36.1165C289.723 35.4811 290.098 35.1998 290.557 35.2832C291.015 35.3561 291.125 35.653 290.89 36.179C289.833 38.5123 288.307 40.6373 286.307 42.554C284.307 44.4602 282.25 46.0123 280.14 47.2207C280.14 47.3352 280.171 47.5019 280.244 47.7207C281.338 52.9707 281.208 57.2727 279.848 60.6373C278.484 63.9967 276.354 66.3248 273.453 67.6165ZM270.89 66.8665C271.807 66.4498 272.453 65.6425 272.828 64.4498C273.203 63.2675 273.375 61.8977 273.348 60.3457C273.333 58.804 273.171 57.2415 272.869 55.6582C272.578 54.0748 272.223 52.6582 271.807 51.4082C270.067 52.7675 268.755 54.2415 267.869 55.8248C266.979 57.4082 266.458 58.9394 266.307 60.429C266.151 61.929 266.265 63.2415 266.64 64.3665C267.026 65.5019 267.598 66.3144 268.348 66.804C269.098 67.304 269.942 67.3248 270.89 66.8665Z" fill="white"/>
</svg>
