<svg xmlns="http://www.w3.org/2000/svg" xmlns:xlink="http://www.w3.org/1999/xlink" width="500" zoomAndPan="magnify" viewBox="0 0 375 374.999991" height="500" preserveAspectRatio="xMidYMid meet" version="1.0"><defs><g/><clipPath id="201b484694"><path d="M 78 90 L 233 90 L 233 291 L 78 291 Z M 78 90 " clip-rule="nonzero"/></clipPath><clipPath id="85b9e33181"><path d="M 41.203125 138.140625 L 152.261719 90.746094 L 232.925781 279.753906 L 121.863281 327.148438 Z M 41.203125 138.140625 " clip-rule="nonzero"/></clipPath><clipPath id="2e40f1d7f8"><path d="M 41.203125 138.140625 L 241.9375 52.476562 L 322.601562 241.484375 L 121.863281 327.148438 Z M 41.203125 138.140625 " clip-rule="nonzero"/></clipPath><clipPath id="bd081109a5"><path d="M 138 84 L 297 84 L 297 286 L 138 286 Z M 138 84 " clip-rule="nonzero"/></clipPath><clipPath id="88bf294b00"><path d="M 333.789062 236.847656 L 219.28125 285.714844 L 138.621094 96.707031 L 253.128906 47.839844 Z M 333.789062 236.847656 " clip-rule="nonzero"/></clipPath><clipPath id="31054354d1"><path d="M 333.789062 236.847656 L 133.054688 322.515625 L 52.394531 133.507812 L 253.128906 47.839844 Z M 333.789062 236.847656 " clip-rule="nonzero"/></clipPath></defs><g clip-path="url(#201b484694)"><g clip-path="url(#85b9e33181)"><g clip-path="url(#2e40f1d7f8)"><path fill="#f4eeea" d="M 282 147.164062 C 287.445312 159.921875 290.230469 173.371094 290.273438 187.125 C 290.316406 200.414062 287.816406 213.433594 282.839844 225.816406 C 277.859375 238.199219 270.664062 249.332031 261.4375 258.894531 C 251.890625 268.796875 240.574219 276.582031 227.816406 282.027344 C 209.125 290 188.730469 292.265625 168.832031 288.578125 C 149.429688 284.980469 131.578125 275.972656 117.207031 262.53125 C 116.898438 262.242188 116.882812 261.753906 117.171875 261.445312 C 117.460938 261.132812 117.949219 261.117188 118.257812 261.40625 C 147.554688 288.816406 190.324219 296.355469 227.210938 280.609375 C 278.550781 258.703125 302.496094 199.105469 280.585938 147.765625 C 258.675781 96.429688 199.082031 72.484375 147.742188 94.394531 C 105.148438 112.570312 80.332031 157.1875 87.394531 202.894531 C 87.460938 203.316406 87.171875 203.707031 86.753906 203.769531 C 86.332031 203.835938 85.941406 203.550781 85.875 203.128906 C 84.148438 191.949219 84.289062 180.617188 86.292969 169.449219 C 88.261719 158.460938 91.980469 147.921875 97.339844 138.121094 C 102.753906 128.226562 109.695312 119.355469 117.972656 111.761719 C 126.539062 103.902344 136.347656 97.585938 147.136719 92.980469 C 159.898438 87.535156 173.34375 84.75 187.101562 84.707031 C 200.386719 84.664062 213.40625 87.164062 225.789062 92.140625 C 238.175781 97.117188 249.304688 104.316406 258.871094 113.539062 C 268.769531 123.089844 276.554688 134.40625 282 147.164062 Z M 111.257812 254.207031 C 111.546875 254.539062 111.855469 254.871094 111.871094 255.351562 C 111.878906 255.65625 111.796875 255.910156 111.503906 256.042969 C 111.234375 256.167969 111 256.078125 110.808594 255.878906 C 110.421875 255.476562 110.058594 255.050781 109.660156 254.660156 C 107.777344 252.800781 105.429688 251.855469 102.914062 251.226562 C 99.734375 250.4375 96.488281 249.859375 93.476562 248.496094 C 90.058594 246.945312 87.339844 244.582031 85.339844 241.402344 C 85.125 241.0625 84.96875 240.703125 84.898438 240.308594 C 84.753906 239.445312 85.308594 238.960938 86.148438 239.210938 C 86.347656 239.273438 86.542969 239.359375 86.71875 239.464844 C 88.878906 240.742188 91.222656 241.570312 93.585938 242.359375 C 96.605469 243.367188 99.425781 244.789062 102.097656 246.511719 C 102.28125 246.632812 102.5 246.902344 102.699219 246.757812 C 102.972656 246.558594 102.695312 246.289062 102.597656 246.078125 C 101.523438 243.769531 100.914062 241.300781 100.066406 238.914062 C 98.96875 235.820312 97.746094 232.777344 96.226562 229.867188 C 95.613281 228.695312 95.007812 227.515625 94.433594 226.316406 C 94.277344 225.980469 94.113281 225.839844 93.75 225.964844 C 91.117188 226.855469 88.746094 226.195312 86.421875 224.851562 C 84.8125 223.921875 83.125 223.125 81.371094 222.484375 C 80.488281 222.164062 80.289062 221.730469 80.792969 220.941406 C 81.195312 220.308594 81.050781 219.980469 80.523438 219.515625 C 78.582031 217.808594 78.507812 217.09375 80 214.960938 C 81.488281 212.820312 83.453125 211.136719 85.425781 209.476562 C 86.144531 208.871094 86.996094 208.484375 87.972656 209.242188 C 87.949219 209.109375 87.925781 208.980469 87.894531 208.851562 C 87.625 207.71875 87.835938 207.257812 88.90625 206.832031 C 89.773438 206.484375 90.589844 206.054688 91.382812 205.558594 C 92.199219 205.050781 93.152344 204.851562 94.066406 204.597656 C 94.75 204.40625 95.335938 204.707031 95.847656 205.167969 C 96.390625 205.652344 96.832031 206.226562 97.246094 206.8125 C 98.511719 208.597656 99.765625 210.386719 100.300781 212.5625 C 100.5625 213.628906 100.527344 214.671875 100.304688 215.738281 C 99.679688 218.699219 98.320312 221.3125 96.425781 223.617188 C 95.53125 224.707031 95.457031 225.613281 96.121094 226.804688 C 97.484375 229.242188 98.761719 231.726562 99.800781 234.320312 C 99.859375 234.460938 99.898438 234.691406 100.09375 234.648438 C 100.394531 234.589844 100.265625 234.308594 100.269531 234.125 C 100.378906 229.753906 101.664062 225.703125 103.617188 221.835938 C 103.902344 221.273438 104.226562 220.734375 104.675781 220.289062 C 104.960938 220.007812 105.300781 219.855469 105.691406 220.035156 C 106.085938 220.214844 106.195312 220.5625 106.140625 220.964844 C 106.035156 221.75 105.925781 222.53125 105.800781 223.3125 C 105.722656 223.804688 105.710938 224.296875 105.914062 224.753906 C 107.085938 227.433594 107.117188 230.269531 107.113281 233.113281 C 107.109375 236.851562 106.363281 240.5 105.292969 244.027344 C 104.414062 246.925781 105.582031 248.765625 107.476562 250.601562 C 108.734375 251.816406 110.113281 252.890625 111.257812 254.207031 Z M 105.101562 226.609375 C 104.089844 231.316406 104.726562 235.925781 104.636719 240.511719 C 104.664062 240.53125 104.695312 240.546875 104.722656 240.5625 C 104.746094 240.523438 104.785156 240.492188 104.796875 240.449219 C 105.792969 236.503906 105.996094 232.503906 105.582031 228.46875 C 105.523438 227.875 105.429688 227.273438 105.101562 226.609375 Z M 103.105469 241.722656 C 103.296875 240.253906 103.359375 238.984375 103.308594 237.703125 C 103.15625 233.824219 103.035156 229.945312 103.800781 226.101562 C 103.894531 225.644531 104.042969 225.164062 103.847656 224.6875 C 103.816406 224.710938 103.78125 224.742188 103.765625 224.773438 C 101.941406 228.933594 101.167969 233.246094 101.910156 237.769531 C 102.125 239.070312 102.453125 240.351562 103.105469 241.722656 Z M 90.808594 243.066406 C 90.957031 243.261719 91.179688 243.34375 91.398438 243.421875 C 93.992188 244.328125 96.464844 245.523438 98.960938 246.65625 C 99.382812 246.847656 99.828125 246.988281 100.316406 247.171875 C 100.269531 246.855469 100.089844 246.808594 99.960938 246.734375 C 97.855469 245.539062 95.6875 244.46875 93.386719 243.695312 C 92.558594 243.417969 91.757812 243.027344 90.867188 242.953125 C 90.855469 242.992188 90.835938 243.03125 90.808594 243.066406 Z M 102.707031 249.75 C 102.605469 249.476562 102.328125 249.441406 102.113281 249.347656 C 100.617188 248.722656 99.070312 248.203125 97.621094 247.484375 C 94.742188 246.054688 91.6875 245.027344 88.832031 243.546875 C 88.871094 243.828125 89.117188 243.945312 89.296875 244.113281 C 91.539062 246.199219 94.144531 247.621094 97.109375 248.390625 C 98.96875 248.871094 100.804688 249.445312 102.707031 249.75 Z M 95.578125 209.429688 C 94.785156 209.957031 94.003906 210.5 93.226562 211.050781 C 92.8125 211.339844 92.515625 211.703125 92.542969 212.261719 C 92.703125 216.027344 93.628906 219.59375 95.257812 222.988281 C 95.300781 222.976562 95.359375 222.980469 95.386719 222.953125 C 95.484375 222.851562 95.578125 222.746094 95.660156 222.636719 C 97.046875 220.667969 98.160156 218.585938 98.835938 216.234375 C 99.515625 213.867188 98.902344 211.828125 97.703125 209.867188 C 97.058594 208.820312 96.585938 208.753906 95.578125 209.429688 Z M 89.835938 208.929688 C 90.550781 208.539062 91.226562 208.085938 91.960938 207.738281 C 92.984375 207.25 93.472656 207.421875 94.015625 208.394531 C 94.164062 208.652344 94.285156 208.753906 94.539062 208.550781 C 94.960938 208.210938 95.445312 207.980469 95.953125 207.816406 C 96.285156 207.707031 96.253906 207.5625 96.09375 207.316406 C 95.097656 205.796875 94.554688 205.621094 92.875 206.300781 C 92.8125 206.328125 92.75 206.355469 92.683594 206.382812 C 91.574219 206.914062 90.582031 207.664062 89.410156 208.078125 C 88.914062 208.25 89.230469 208.644531 89.296875 208.90625 C 89.40625 209.320312 89.675781 209.015625 89.835938 208.929688 Z M 81.699219 218.941406 C 81.761719 218.992188 81.875 219.03125 81.945312 219.011719 C 82.28125 218.921875 82.808594 217.75 82.609375 217.472656 C 81.878906 216.449219 82.175781 215.546875 82.90625 214.695312 C 84.058594 213.355469 85.328125 212.136719 86.691406 211.015625 C 86.863281 210.875 87.214844 210.753906 86.980469 210.425781 C 86.761719 210.121094 86.519531 210.367188 86.308594 210.476562 C 86.148438 210.558594 85.996094 210.679688 85.863281 210.804688 C 84.5625 212.027344 83.246094 213.230469 81.976562 214.488281 C 81.367188 215.089844 80.914062 215.835938 80.464844 216.566406 C 80.308594 216.820312 80.152344 217.09375 80.292969 217.441406 C 80.691406 217.988281 81.167969 218.492188 81.699219 218.941406 Z M 92.371094 221.308594 C 90.875 219.359375 89.011719 217.851562 86.824219 216.75 C 85.703125 216.1875 84.90625 216.3125 84.488281 217.21875 C 83.898438 218.492188 83.199219 219.683594 82.375 220.8125 C 82.136719 221.140625 82.128906 221.335938 82.582031 221.519531 C 84.238281 222.191406 85.84375 222.980469 87.410156 223.84375 C 89.078125 224.765625 90.773438 225.390625 92.726562 224.832031 C 94.128906 224.429688 94.144531 224.765625 93.492188 223.15625 C 93.277344 222.542969 92.839844 221.917969 92.371094 221.308594 Z M 92.371094 219.210938 C 91.691406 217.089844 91.457031 215.003906 91.238281 212.914062 C 91.09375 211.546875 91.46875 210.488281 92.710938 209.808594 C 93.0625 209.621094 93.144531 209.355469 92.945312 209 C 92.71875 208.59375 92.457031 208.863281 92.246094 208.984375 C 90.128906 210.1875 87.996094 211.371094 86.269531 213.132812 C 85.460938 213.957031 84.550781 214.6875 83.914062 215.675781 C 85.054688 214.824219 86.203125 214.976562 87.363281 215.539062 C 88.410156 216.046875 89.398438 216.660156 90.296875 217.40625 C 90.972656 217.964844 91.617188 218.554688 92.371094 219.210938 Z M 92.371094 219.210938 " fill-opacity="1" fill-rule="nonzero"/></g></g></g><g clip-path="url(#bd081109a5)"><g clip-path="url(#88bf294b00)"><g clip-path="url(#31054354d1)"><path fill="#f4eeea" d="M 92.992188 227.824219 C 87.546875 215.066406 84.761719 201.621094 84.71875 187.863281 C 84.675781 174.574219 87.175781 161.558594 92.152344 149.171875 C 97.132812 136.789062 104.328125 125.65625 113.554688 116.09375 C 123.105469 106.191406 134.417969 98.410156 147.175781 92.964844 C 165.867188 84.988281 186.265625 82.722656 206.160156 86.410156 C 225.566406 90.007812 243.414062 99.015625 257.785156 112.457031 C 258.097656 112.75 258.109375 113.234375 257.824219 113.542969 C 257.53125 113.855469 257.046875 113.871094 256.734375 113.582031 C 227.4375 86.171875 184.671875 78.632812 147.78125 94.378906 C 96.441406 116.289062 72.496094 175.882812 94.40625 227.222656 C 116.316406 278.5625 175.910156 302.503906 227.25 280.59375 C 269.84375 262.417969 294.660156 217.800781 287.597656 172.09375 C 287.53125 171.671875 287.820312 171.28125 288.238281 171.21875 C 288.660156 171.152344 289.050781 171.441406 289.117188 171.859375 C 290.84375 183.039062 290.703125 194.371094 288.703125 205.539062 C 286.730469 216.527344 283.011719 227.066406 277.652344 236.867188 C 272.238281 246.765625 265.296875 255.632812 257.019531 263.230469 C 248.457031 271.085938 238.644531 277.40625 227.855469 282.007812 C 215.09375 287.453125 201.648438 290.238281 187.890625 290.285156 C 174.605469 290.324219 161.585938 287.824219 149.203125 282.847656 C 136.816406 277.871094 125.6875 270.671875 116.121094 261.449219 C 106.222656 251.898438 98.4375 240.585938 92.992188 227.824219 Z M 263.734375 120.78125 C 263.445312 120.449219 263.136719 120.117188 263.121094 119.636719 C 263.113281 119.335938 263.195312 119.078125 263.488281 118.945312 C 263.757812 118.820312 263.996094 118.910156 264.1875 119.109375 C 264.570312 119.511719 264.933594 119.9375 265.332031 120.328125 C 267.214844 122.1875 269.5625 123.136719 272.082031 123.761719 C 275.261719 124.550781 278.503906 125.132812 281.515625 126.492188 C 284.933594 128.042969 287.65625 130.410156 289.65625 133.585938 C 289.867188 133.925781 290.027344 134.289062 290.09375 134.683594 C 290.238281 135.542969 289.683594 136.027344 288.84375 135.777344 C 288.644531 135.71875 288.449219 135.628906 288.273438 135.527344 C 286.113281 134.25 283.769531 133.421875 281.40625 132.628906 C 278.386719 131.621094 275.566406 130.199219 272.894531 128.476562 C 272.710938 128.359375 272.492188 128.085938 272.292969 128.230469 C 272.019531 128.433594 272.296875 128.699219 272.394531 128.910156 C 273.472656 131.21875 274.078125 133.691406 274.925781 136.074219 C 276.027344 139.167969 277.246094 142.210938 278.765625 145.121094 C 279.378906 146.296875 279.984375 147.476562 280.558594 148.671875 C 280.71875 149.007812 280.878906 149.148438 281.242188 149.027344 C 283.878906 148.132812 286.246094 148.796875 288.570312 150.140625 C 290.179688 151.070312 291.867188 151.863281 293.625 152.503906 C 294.503906 152.824219 294.703125 153.257812 294.199219 154.046875 C 293.796875 154.683594 293.941406 155.011719 294.46875 155.472656 C 296.410156 157.179688 296.484375 157.894531 294.992188 160.03125 C 293.503906 162.167969 291.539062 163.851562 289.566406 165.511719 C 288.847656 166.117188 288 166.503906 287.019531 165.746094 C 287.046875 165.878906 287.066406 166.007812 287.097656 166.136719 C 287.367188 167.269531 287.15625 167.730469 286.085938 168.15625 C 285.21875 168.503906 284.402344 168.933594 283.609375 169.429688 C 282.792969 169.941406 281.839844 170.140625 280.925781 170.394531 C 280.242188 170.585938 279.65625 170.28125 279.144531 169.820312 C 278.605469 169.335938 278.160156 168.765625 277.746094 168.175781 C 276.484375 166.390625 275.226562 164.601562 274.691406 162.425781 C 274.429688 161.363281 274.464844 160.316406 274.691406 159.25 C 275.3125 156.289062 276.671875 153.675781 278.566406 151.371094 C 279.464844 150.28125 279.535156 149.375 278.871094 148.183594 C 277.507812 145.746094 276.230469 143.265625 275.191406 140.667969 C 275.132812 140.527344 275.09375 140.300781 274.898438 140.339844 C 274.597656 140.398438 274.730469 140.679688 274.722656 140.863281 C 274.613281 145.238281 273.328125 149.285156 271.375 153.152344 C 271.09375 153.714844 270.769531 154.253906 270.316406 154.699219 C 270.03125 154.980469 269.691406 155.132812 269.300781 154.953125 C 268.90625 154.773438 268.800781 154.425781 268.851562 154.023438 C 268.957031 153.238281 269.066406 152.457031 269.191406 151.675781 C 269.269531 151.183594 269.28125 150.691406 269.082031 150.234375 C 267.90625 147.554688 267.875 144.71875 267.878906 141.875 C 267.882812 138.136719 268.632812 134.488281 269.699219 130.960938 C 270.582031 128.0625 269.410156 126.222656 267.515625 124.386719 C 266.257812 123.175781 264.878906 122.101562 263.734375 120.78125 Z M 269.890625 148.382812 C 270.902344 143.671875 270.265625 139.0625 270.355469 134.476562 C 270.328125 134.457031 270.300781 134.441406 270.269531 134.425781 C 270.246094 134.464844 270.210938 134.5 270.195312 134.539062 C 269.199219 138.484375 268.996094 142.484375 269.410156 146.519531 C 269.472656 147.113281 269.5625 147.71875 269.890625 148.382812 Z M 271.886719 133.269531 C 271.695312 134.734375 271.632812 136.003906 271.683594 137.285156 C 271.835938 141.167969 271.957031 145.042969 271.191406 148.886719 C 271.101562 149.34375 270.949219 149.828125 271.144531 150.304688 C 271.175781 150.277344 271.214844 150.25 271.230469 150.214844 C 273.050781 146.054688 273.824219 141.742188 273.085938 137.21875 C 272.867188 135.917969 272.539062 134.636719 271.886719 133.269531 Z M 284.183594 131.921875 C 284.035156 131.726562 283.8125 131.644531 283.59375 131.566406 C 281 130.664062 278.527344 129.464844 276.03125 128.332031 C 275.609375 128.140625 275.164062 128 274.675781 127.816406 C 274.722656 128.132812 274.902344 128.179688 275.03125 128.253906 C 277.136719 129.449219 279.304688 130.519531 281.605469 131.292969 C 282.4375 131.570312 283.234375 131.964844 284.125 132.035156 C 284.136719 131.996094 284.15625 131.957031 284.183594 131.921875 Z M 272.289062 125.238281 C 272.386719 125.515625 272.664062 125.546875 272.878906 125.640625 C 274.375 126.265625 275.921875 126.785156 277.371094 127.503906 C 280.25 128.933594 283.304688 129.960938 286.160156 131.441406 C 286.121094 131.160156 285.875 131.042969 285.695312 130.875 C 283.457031 128.789062 280.847656 127.371094 277.882812 126.597656 C 276.027344 126.117188 274.1875 125.546875 272.289062 125.238281 Z M 279.414062 165.5625 C 280.207031 165.03125 280.988281 164.488281 281.769531 163.941406 C 282.179688 163.648438 282.476562 163.285156 282.449219 162.726562 C 282.292969 158.964844 281.363281 155.394531 279.734375 152 C 279.691406 152.011719 279.632812 152.007812 279.605469 152.035156 C 279.507812 152.136719 279.414062 152.242188 279.332031 152.351562 C 277.945312 154.324219 276.832031 156.40625 276.160156 158.753906 C 275.476562 161.121094 276.089844 163.164062 277.289062 165.125 C 277.933594 166.167969 278.40625 166.234375 279.414062 165.5625 Z M 285.15625 166.0625 C 284.445312 166.449219 283.765625 166.902344 283.035156 167.25 C 282.007812 167.738281 281.519531 167.566406 280.976562 166.597656 C 280.828125 166.335938 280.707031 166.234375 280.453125 166.4375 C 280.03125 166.777344 279.550781 167.007812 279.039062 167.175781 C 278.707031 167.285156 278.738281 167.429688 278.902344 167.675781 C 279.894531 169.191406 280.4375 169.367188 282.117188 168.6875 C 282.179688 168.660156 282.242188 168.632812 282.308594 168.605469 C 283.417969 168.074219 284.410156 167.324219 285.582031 166.914062 C 286.078125 166.738281 285.761719 166.34375 285.695312 166.082031 C 285.585938 165.667969 285.320312 165.972656 285.15625 166.0625 Z M 293.292969 156.046875 C 293.234375 155.996094 293.117188 155.957031 293.046875 155.976562 C 292.710938 156.066406 292.1875 157.238281 292.382812 157.519531 C 293.113281 158.542969 292.816406 159.441406 292.085938 160.292969 C 290.9375 161.636719 289.664062 162.851562 288.300781 163.972656 C 288.128906 164.113281 287.78125 164.238281 288.011719 164.5625 C 288.234375 164.867188 288.472656 164.621094 288.683594 164.511719 C 288.847656 164.429688 288.996094 164.3125 289.128906 164.183594 C 290.433594 162.960938 291.75 161.757812 293.015625 160.5 C 293.625 159.898438 294.078125 159.152344 294.53125 158.421875 C 294.6875 158.167969 294.839844 157.894531 294.699219 157.546875 C 294.304688 157.003906 293.824219 156.5 293.292969 156.046875 Z M 282.621094 153.679688 C 284.117188 155.628906 285.980469 157.136719 288.171875 158.238281 C 289.289062 158.800781 290.085938 158.675781 290.507812 157.769531 C 291.09375 156.5 291.796875 155.304688 292.617188 154.175781 C 292.855469 153.847656 292.863281 153.65625 292.410156 153.472656 C 290.753906 152.796875 289.148438 152.007812 287.582031 151.144531 C 285.914062 150.222656 284.21875 149.597656 282.265625 150.15625 C 280.863281 150.5625 280.847656 150.222656 281.503906 151.832031 C 281.714844 152.445312 282.152344 153.074219 282.621094 153.679688 Z M 282.621094 155.78125 C 283.300781 157.898438 283.535156 159.984375 283.753906 162.074219 C 283.898438 163.441406 283.523438 164.5 282.28125 165.179688 C 281.933594 165.371094 281.847656 165.632812 282.046875 165.988281 C 282.273438 166.394531 282.535156 166.125 282.746094 166.003906 C 284.863281 164.804688 286.996094 163.617188 288.726562 161.855469 C 289.53125 161.03125 290.441406 160.300781 291.078125 159.3125 C 289.9375 160.167969 288.792969 160.011719 287.632812 159.449219 C 286.582031 158.941406 285.59375 158.328125 284.699219 157.582031 C 284.019531 157.023438 283.375 156.4375 282.621094 155.78125 Z M 282.621094 155.78125 " fill-opacity="1" fill-rule="nonzero"/></g></g></g><g fill="#f4eeea" fill-opacity="1"><g transform="translate(178.845287, 251.536522)"><g><path d="M -0.171875 -58.734375 L 14.34375 -58.734375 C 13.84375 -58.671875 13.269531 -58.472656 12.625 -58.140625 C 11.988281 -57.804688 11.519531 -57.304688 11.21875 -56.640625 C 10.914062 -55.972656 10.984375 -55.140625 11.421875 -54.140625 L 11.34375 -54.3125 L 32.703125 -6.921875 L 53.96875 -54.640625 C 54.363281 -55.972656 54.113281 -56.972656 53.21875 -57.640625 C 52.332031 -58.304688 51.5 -58.671875 50.71875 -58.734375 L 60.890625 -58.734375 C 59.953125 -58.617188 58.910156 -58.226562 57.765625 -57.5625 C 56.628906 -56.894531 55.644531 -55.78125 54.8125 -54.21875 L 30.453125 1.078125 L 6.09375 -54.0625 C 5.257812 -55.675781 4.253906 -56.828125 3.078125 -57.515625 C 1.910156 -58.210938 0.828125 -58.617188 -0.171875 -58.734375 Z M -0.171875 -58.734375 "/></g></g></g><g fill="#f4eeea" fill-opacity="1"><g transform="translate(146.198037, 192.856883)"><g><path d="M 14.6875 -1.171875 L 38.046875 -1.171875 C 41.597656 -1.171875 44.207031 -1.890625 45.875 -3.328125 C 47.550781 -4.773438 48.664062 -6.613281 49.21875 -8.84375 L 46.96875 -0.171875 L -0.171875 -0.171875 C 1.273438 -0.171875 2.515625 -0.695312 3.546875 -1.75 C 4.578125 -2.8125 5.09375 -4.3125 5.09375 -6.25 L 5.09375 -52.640625 C 5.09375 -54.640625 4.578125 -56.164062 3.546875 -57.21875 C 2.515625 -58.28125 1.273438 -58.8125 -0.171875 -58.8125 L 15.59375 -58.8125 C 14.207031 -58.8125 12.984375 -58.28125 11.921875 -57.21875 C 10.867188 -56.164062 10.34375 -54.640625 10.34375 -52.640625 L 10.34375 -6.25 C 10.34375 -4.644531 10.773438 -3.394531 11.640625 -2.5 C 12.503906 -1.613281 13.519531 -1.171875 14.6875 -1.171875 Z M 49.21875 -8.84375 L 49.296875 -9.015625 C 49.296875 -8.953125 49.28125 -8.90625 49.25 -8.875 C 49.226562 -8.851562 49.21875 -8.84375 49.21875 -8.84375 Z M 49.21875 -8.84375 "/></g></g></g><path fill="#383838" d="M 98.894531 127.785156 C 98.464844 127.480469 98.113281 127.109375 97.832031 126.667969 C 97.550781 126.226562 97.363281 125.746094 97.269531 125.230469 C 97.179688 124.714844 97.1875 124.203125 97.296875 123.691406 C 97.40625 123.179688 97.605469 122.707031 97.902344 122.273438 C 99.304688 120.371094 100.765625 118.515625 102.289062 116.710938 C 103.8125 114.902344 105.390625 113.148438 107.03125 111.441406 C 108.667969 109.738281 110.359375 108.089844 112.101562 106.496094 C 113.847656 104.902344 115.640625 103.367188 117.488281 101.890625 C 119.332031 100.414062 121.222656 99 123.160156 97.644531 C 125.097656 96.292969 127.078125 95.003906 129.097656 93.777344 C 131.117188 92.554688 133.179688 91.394531 135.273438 90.304688 C 137.371094 89.214844 139.5 88.195312 141.664062 87.242188 C 143.828125 86.292969 146.019531 85.414062 148.238281 84.605469 C 150.460938 83.796875 152.703125 83.058594 154.972656 82.398438 C 157.242188 81.734375 159.53125 81.148438 161.835938 80.636719 C 164.144531 80.121094 166.464844 79.683594 168.800781 79.324219 C 171.132812 78.960938 173.480469 78.675781 175.832031 78.46875 C 178.1875 78.257812 180.546875 78.125 182.90625 78.070312 C 185.269531 78.015625 187.632812 78.039062 189.992188 78.136719 C 192.355469 78.234375 194.710938 78.410156 197.058594 78.664062 C 197.578125 78.738281 198.0625 78.910156 198.511719 79.175781 C 198.964844 79.441406 199.347656 79.78125 199.667969 80.199219 C 199.984375 80.613281 200.210938 81.074219 200.347656 81.582031 C 200.480469 82.085938 200.515625 82.597656 200.453125 83.117188 L 199.308594 91.03125 C 199.273438 91.292969 199.214844 91.550781 199.132812 91.804688 C 199.046875 92.058594 198.941406 92.300781 198.808594 92.53125 C 198.675781 92.761719 198.523438 92.976562 198.347656 93.175781 C 198.171875 93.375 197.976562 93.558594 197.765625 93.71875 C 197.554688 93.878906 197.328125 94.019531 197.089844 94.136719 C 196.851562 94.253906 196.601562 94.34375 196.34375 94.410156 C 196.089844 94.476562 195.828125 94.519531 195.5625 94.535156 C 195.296875 94.546875 195.03125 94.539062 194.765625 94.5 C 190.800781 94.097656 186.824219 93.953125 182.839844 94.066406 C 178.855469 94.179688 174.894531 94.546875 170.957031 95.167969 C 167.019531 95.789062 163.136719 96.664062 159.3125 97.785156 C 155.488281 98.910156 151.75 100.273438 148.101562 101.878906 C 144.453125 103.484375 140.921875 105.316406 137.507812 107.375 C 134.09375 109.4375 130.828125 111.707031 127.707031 114.1875 C 124.589844 116.671875 121.640625 119.34375 118.863281 122.203125 C 116.089844 125.066406 113.507812 128.09375 111.121094 131.285156 C 110.972656 131.507812 110.800781 131.710938 110.613281 131.894531 C 110.421875 132.082031 110.214844 132.246094 109.992188 132.390625 C 109.769531 132.535156 109.53125 132.65625 109.285156 132.753906 C 109.039062 132.851562 108.78125 132.921875 108.519531 132.96875 C 108.257812 133.015625 107.996094 133.035156 107.730469 133.03125 C 107.460938 133.023438 107.199219 132.992188 106.941406 132.933594 C 106.679688 132.875 106.429688 132.792969 106.1875 132.683594 C 105.945312 132.574219 105.714844 132.441406 105.496094 132.289062 Z M 98.894531 127.785156 " fill-opacity="1" fill-rule="nonzero"/><g fill="#f4eeea" fill-opacity="1"><g transform="translate(106.401752, 128.975198)"><g><path d="M -4.8125 -5.203125 L -4.359375 -5.796875 L 0.65625 -1.875 L 3.078125 -4.953125 L 3.578125 -4.5625 L 0.703125 -0.890625 Z M -4.8125 -5.203125 "/></g></g></g><g fill="#f4eeea" fill-opacity="1"><g transform="translate(111.501862, 122.555775)"><g><path d="M 2.765625 -2.828125 C 2.140625 -2.171875 1.460938 -1.835938 0.734375 -1.828125 C 0.00390625 -1.816406 -0.71875 -2.148438 -1.4375 -2.828125 L -4.34375 -5.59375 L -3.828125 -6.125 L -0.9375 -3.390625 C -0.34375 -2.828125 0.222656 -2.539062 0.765625 -2.53125 C 1.304688 -2.53125 1.8125 -2.78125 2.28125 -3.28125 C 2.769531 -3.789062 2.992188 -4.316406 2.953125 -4.859375 C 2.921875 -5.398438 2.609375 -5.953125 2.015625 -6.515625 L -0.875 -9.25 L -0.390625 -9.765625 L 2.515625 -7 C 3.234375 -6.320312 3.609375 -5.617188 3.640625 -4.890625 C 3.679688 -4.171875 3.390625 -3.484375 2.765625 -2.828125 Z M 2.765625 -2.828125 "/></g></g></g><g fill="#f4eeea" fill-opacity="1"><g transform="translate(118.698014, 115.235826)"><g><path d="M -3.84375 -5.96875 L -3.296875 -6.453125 L 1.390625 -1.25 L 0.84375 -0.765625 Z M -4.234375 -8.046875 L -3.515625 -8.671875 L -3.90625 -6.671875 L -4.421875 -6.203125 Z M -4.234375 -8.046875 "/></g></g></g><g fill="#f4eeea" fill-opacity="1"><g transform="translate(122.729374, 111.647809)"><g><path d="M 2.453125 -1.828125 C 2.046875 -1.515625 1.601562 -1.273438 1.125 -1.109375 C 0.644531 -0.953125 0.222656 -0.898438 -0.140625 -0.953125 L -0.265625 -1.59375 C 0.0859375 -1.550781 0.476562 -1.59375 0.90625 -1.71875 C 1.34375 -1.851562 1.734375 -2.050781 2.078125 -2.3125 C 2.578125 -2.707031 2.875 -3.09375 2.96875 -3.46875 C 3.070312 -3.851562 3.015625 -4.191406 2.796875 -4.484375 C 2.617188 -4.703125 2.410156 -4.820312 2.171875 -4.84375 C 1.941406 -4.863281 1.703125 -4.835938 1.453125 -4.765625 C 1.203125 -4.691406 0.875 -4.554688 0.46875 -4.359375 C -0.03125 -4.140625 -0.441406 -3.984375 -0.765625 -3.890625 C -1.097656 -3.804688 -1.425781 -3.789062 -1.75 -3.84375 C -2.082031 -3.894531 -2.382812 -4.097656 -2.65625 -4.453125 C -2.875 -4.722656 -2.992188 -5.03125 -3.015625 -5.375 C -3.046875 -5.726562 -2.960938 -6.09375 -2.765625 -6.46875 C -2.578125 -6.84375 -2.253906 -7.207031 -1.796875 -7.5625 C -1.484375 -7.800781 -1.140625 -7.992188 -0.765625 -8.140625 C -0.398438 -8.285156 -0.046875 -8.367188 0.296875 -8.390625 L 0.46875 -7.765625 C 0.125 -7.742188 -0.207031 -7.671875 -0.53125 -7.546875 C -0.863281 -7.421875 -1.15625 -7.257812 -1.40625 -7.0625 C -1.894531 -6.675781 -2.1875 -6.296875 -2.28125 -5.921875 C -2.382812 -5.546875 -2.320312 -5.207031 -2.09375 -4.90625 C -1.914062 -4.6875 -1.707031 -4.5625 -1.46875 -4.53125 C -1.226562 -4.507812 -0.976562 -4.539062 -0.71875 -4.625 C -0.457031 -4.707031 -0.125 -4.84375 0.28125 -5.03125 C 0.75 -5.238281 1.144531 -5.390625 1.46875 -5.484375 C 1.800781 -5.578125 2.128906 -5.59375 2.453125 -5.53125 C 2.785156 -5.476562 3.085938 -5.285156 3.359375 -4.953125 C 3.566406 -4.671875 3.679688 -4.359375 3.703125 -4.015625 C 3.734375 -3.671875 3.644531 -3.3125 3.4375 -2.9375 C 3.238281 -2.5625 2.910156 -2.191406 2.453125 -1.828125 Z M 2.453125 -1.828125 "/></g></g></g><g fill="#f4eeea" fill-opacity="1"><g transform="translate(129.45946, 106.514033)"><g><path d="M 3.640625 -4.5625 L 0.359375 -2.453125 L 0.671875 -0.4375 L 0.015625 -0.015625 L -1.078125 -7.625 L -0.453125 -8.015625 L 6.03125 -3.859375 L 5.375 -3.4375 Z M 3.109375 -4.921875 L -0.34375 -7.1875 L 0.28125 -3.109375 Z M 3.109375 -4.921875 "/></g></g></g><g fill="#f4eeea" fill-opacity="1"><g transform="translate(137.578193, 101.518694)"><g/></g></g><g fill="#f4eeea" fill-opacity="1"><g transform="translate(141.978921, 99.154649)"><g><path d="M 5.65625 -2.4375 L 4.375 -2.9375 C 4.09375 -2.113281 3.507812 -1.503906 2.625 -1.109375 C 2.207031 -0.921875 1.804688 -0.820312 1.421875 -0.8125 C 1.035156 -0.8125 0.691406 -0.890625 0.390625 -1.046875 C 0.0859375 -1.210938 -0.128906 -1.453125 -0.265625 -1.765625 C -0.441406 -2.148438 -0.472656 -2.546875 -0.359375 -2.953125 C -0.242188 -3.367188 0.0195312 -3.878906 0.4375 -4.484375 C 0 -4.660156 -0.328125 -4.832031 -0.546875 -5 C -0.765625 -5.175781 -0.925781 -5.390625 -1.03125 -5.640625 C -1.21875 -6.046875 -1.21875 -6.4375 -1.03125 -6.8125 C -0.851562 -7.1875 -0.519531 -7.488281 -0.03125 -7.71875 C 0.425781 -7.914062 0.835938 -7.960938 1.203125 -7.859375 C 1.566406 -7.753906 1.835938 -7.503906 2.015625 -7.109375 C 2.160156 -6.796875 2.179688 -6.46875 2.078125 -6.125 C 1.984375 -5.78125 1.742188 -5.332031 1.359375 -4.78125 L 3.921875 -3.78125 C 3.960938 -4.207031 3.914062 -4.679688 3.78125 -5.203125 L 4.40625 -5.28125 C 4.539062 -4.644531 4.570312 -4.066406 4.5 -3.546875 L 5.84375 -3.03125 Z M 0.1875 -7.234375 C -0.125 -7.085938 -0.332031 -6.894531 -0.4375 -6.65625 C -0.550781 -6.414062 -0.546875 -6.164062 -0.421875 -5.90625 C -0.335938 -5.71875 -0.210938 -5.5625 -0.046875 -5.4375 C 0.117188 -5.3125 0.410156 -5.164062 0.828125 -5 C 1.179688 -5.476562 1.398438 -5.847656 1.484375 -6.109375 C 1.566406 -6.378906 1.554688 -6.628906 1.453125 -6.859375 C 1.347656 -7.097656 1.1875 -7.25 0.96875 -7.3125 C 0.75 -7.382812 0.488281 -7.359375 0.1875 -7.234375 Z M 2.40625 -1.671875 C 3.113281 -1.984375 3.578125 -2.476562 3.796875 -3.15625 L 0.984375 -4.265625 C 0.609375 -3.753906 0.375 -3.335938 0.28125 -3.015625 C 0.1875 -2.703125 0.207031 -2.40625 0.34375 -2.125 C 0.5 -1.769531 0.765625 -1.550781 1.140625 -1.46875 C 1.523438 -1.394531 1.945312 -1.460938 2.40625 -1.671875 Z M 2.40625 -1.671875 "/></g></g></g><g fill="#f4eeea" fill-opacity="1"><g transform="translate(150.302332, 95.576274)"><g/></g></g><g fill="#f4eeea" fill-opacity="1"><g transform="translate(154.990831, 93.863548)"><g><path d="M 4.765625 -8.640625 L 3.703125 -1.0625 L 3 -0.859375 L -1.890625 -6.75 L -1.125 -6.96875 L 3.125 -1.859375 L 4.046875 -8.4375 Z M 4.765625 -8.640625 "/></g></g></g><g fill="#f4eeea" fill-opacity="1"><g transform="translate(164.014738, 91.45555)"><g><path d="M -0.28125 -7.09375 L 0.4375 -7.234375 L 1.84375 -0.375 L 1.125 -0.234375 Z M -0.28125 -7.09375 "/></g></g></g><g fill="#f4eeea" fill-opacity="1"><g transform="translate(169.31337, 90.401124)"><g><path d="M 1.640625 -6.625 L -0.796875 -6.296875 L -0.890625 -6.9375 L 4.71875 -7.703125 L 4.8125 -7.0625 L 2.359375 -6.734375 L 3.203125 -0.4375 L 2.484375 -0.328125 Z M 1.640625 -6.625 "/></g></g></g><g fill="#f4eeea" fill-opacity="1"><g transform="translate(177.292447, 89.374435)"><g><path d="M 4.203125 -0.09375 C 3.503906 -0.0703125 2.867188 -0.207031 2.296875 -0.5 C 1.722656 -0.789062 1.265625 -1.195312 0.921875 -1.71875 C 0.585938 -2.238281 0.40625 -2.835938 0.375 -3.515625 C 0.351562 -4.191406 0.488281 -4.804688 0.78125 -5.359375 C 1.082031 -5.910156 1.507812 -6.351562 2.0625 -6.6875 C 2.613281 -7.019531 3.238281 -7.195312 3.9375 -7.21875 C 4.625 -7.25 5.25 -7.117188 5.8125 -6.828125 C 6.382812 -6.546875 6.84375 -6.140625 7.1875 -5.609375 C 7.53125 -5.078125 7.710938 -4.472656 7.734375 -3.796875 C 7.765625 -3.117188 7.628906 -2.503906 7.328125 -1.953125 C 7.023438 -1.398438 6.597656 -0.957031 6.046875 -0.625 C 5.503906 -0.300781 4.890625 -0.125 4.203125 -0.09375 Z M 4.1875 -0.75 C 4.738281 -0.769531 5.234375 -0.914062 5.671875 -1.1875 C 6.109375 -1.457031 6.441406 -1.816406 6.671875 -2.265625 C 6.898438 -2.722656 7.003906 -3.222656 6.984375 -3.765625 C 6.972656 -4.304688 6.832031 -4.796875 6.5625 -5.234375 C 6.289062 -5.679688 5.925781 -6.019531 5.46875 -6.25 C 5.007812 -6.476562 4.503906 -6.582031 3.953125 -6.5625 C 3.398438 -6.539062 2.898438 -6.394531 2.453125 -6.125 C 2.015625 -5.863281 1.675781 -5.503906 1.4375 -5.046875 C 1.207031 -4.585938 1.097656 -4.085938 1.109375 -3.546875 C 1.128906 -3.003906 1.273438 -2.515625 1.546875 -2.078125 C 1.828125 -1.640625 2.195312 -1.300781 2.65625 -1.0625 C 3.125 -0.832031 3.632812 -0.726562 4.1875 -0.75 Z M 4.1875 -0.75 "/></g></g></g><g fill="#f4eeea" fill-opacity="1"><g transform="translate(187.958258, 89.116605)"><g><path d="M 5.90625 0.390625 L 4.4375 -1.96875 C 4.257812 -1.957031 4.078125 -1.957031 3.890625 -1.96875 L 2.015625 -2.09375 L 1.875 0.125 L 1.140625 0.078125 L 1.59375 -6.90625 L 4.203125 -6.734375 C 5.085938 -6.679688 5.769531 -6.421875 6.25 -5.953125 C 6.738281 -5.492188 6.957031 -4.890625 6.90625 -4.140625 C 6.875 -3.597656 6.707031 -3.148438 6.40625 -2.796875 C 6.101562 -2.453125 5.6875 -2.210938 5.15625 -2.078125 L 6.71875 0.4375 Z M 3.90625 -2.59375 C 4.601562 -2.550781 5.144531 -2.671875 5.53125 -2.953125 C 5.914062 -3.234375 6.125 -3.648438 6.15625 -4.203125 C 6.195312 -4.773438 6.046875 -5.222656 5.703125 -5.546875 C 5.359375 -5.867188 4.835938 -6.050781 4.140625 -6.09375 L 2.296875 -6.21875 L 2.0625 -2.71875 Z M 3.90625 -2.59375 "/></g></g></g><path fill="#383838" d="M 275.210938 248.585938 C 275.640625 248.886719 275.996094 249.253906 276.28125 249.695312 C 276.566406 250.136719 276.753906 250.613281 276.851562 251.128906 C 276.949219 251.644531 276.941406 252.15625 276.835938 252.667969 C 276.730469 253.183594 276.53125 253.65625 276.238281 254.089844 C 274.195312 256.90625 272.019531 259.613281 269.714844 262.21875 C 267.410156 264.824219 264.984375 267.3125 262.441406 269.6875 C 259.894531 272.058594 257.242188 274.304688 254.484375 276.421875 C 251.722656 278.539062 248.871094 280.523438 245.917969 282.367188 C 242.96875 284.210938 239.9375 285.910156 236.824219 287.460938 C 233.714844 289.015625 230.535156 290.414062 227.285156 291.664062 C 224.039062 292.910156 220.738281 294 217.386719 294.933594 C 214.035156 295.863281 210.648438 296.632812 207.222656 297.238281 C 206.703125 297.3125 206.191406 297.28125 205.683594 297.152344 C 205.175781 297.023438 204.710938 296.804688 204.289062 296.492188 C 203.871094 296.179688 203.523438 295.800781 203.253906 295.351562 C 202.980469 294.90625 202.804688 294.421875 202.722656 293.90625 L 201.621094 285.988281 C 201.578125 285.722656 201.5625 285.460938 201.570312 285.195312 C 201.582031 284.929688 201.617188 284.667969 201.679688 284.40625 C 201.742188 284.148438 201.832031 283.898438 201.945312 283.660156 C 202.058594 283.417969 202.191406 283.191406 202.351562 282.976562 C 202.507812 282.761719 202.6875 282.566406 202.882812 282.386719 C 203.082031 282.207031 203.292969 282.050781 203.523438 281.914062 C 203.75 281.777344 203.992188 281.667969 204.242188 281.578125 C 204.492188 281.492188 204.75 281.429688 205.015625 281.390625 C 207.882812 280.863281 210.722656 280.203125 213.53125 279.410156 C 216.339844 278.613281 219.105469 277.691406 221.824219 276.632812 C 224.542969 275.578125 227.210938 274.398438 229.820312 273.089844 C 232.429688 271.78125 234.96875 270.355469 237.445312 268.808594 C 239.917969 267.261719 242.316406 265.601562 244.632812 263.828125 C 246.949219 262.054688 249.179688 260.175781 251.320312 258.195312 C 253.460938 256.210938 255.503906 254.128906 257.449219 251.953125 C 259.390625 249.777344 261.230469 247.515625 262.960938 245.164062 C 263.109375 244.945312 263.277344 244.742188 263.464844 244.554688 C 263.65625 244.367188 263.859375 244.199219 264.082031 244.054688 C 264.304688 243.90625 264.539062 243.785156 264.789062 243.6875 C 265.035156 243.585938 265.289062 243.511719 265.550781 243.464844 C 265.8125 243.417969 266.074219 243.394531 266.339844 243.398438 C 266.609375 243.402344 266.871094 243.433594 267.128906 243.488281 C 267.390625 243.546875 267.640625 243.628906 267.886719 243.734375 C 268.128906 243.84375 268.359375 243.972656 268.578125 244.125 Z M 275.210938 248.585938 " fill-opacity="1" fill-rule="nonzero"/><g fill="#f4eeea" fill-opacity="1"><g transform="translate(206.614484, 292.189432)"><g><path d="M 3.25 -0.625 C 2.726562 -0.507812 2.226562 -0.546875 1.75 -0.734375 C 1.269531 -0.929688 0.859375 -1.269531 0.515625 -1.75 C 0.171875 -2.226562 -0.0703125 -2.820312 -0.21875 -3.53125 C -0.375 -4.25 -0.390625 -4.890625 -0.265625 -5.453125 C -0.140625 -6.023438 0.0976562 -6.492188 0.453125 -6.859375 C 0.816406 -7.234375 1.257812 -7.476562 1.78125 -7.59375 C 2.3125 -7.695312 2.8125 -7.648438 3.28125 -7.453125 C 3.757812 -7.265625 4.171875 -6.9375 4.515625 -6.46875 C 4.859375 -6 5.109375 -5.40625 5.265625 -4.6875 C 5.410156 -3.976562 5.421875 -3.332031 5.296875 -2.75 C 5.171875 -2.175781 4.929688 -1.703125 4.578125 -1.328125 C 4.222656 -0.960938 3.78125 -0.726562 3.25 -0.625 Z M 3.109375 -1.265625 C 3.515625 -1.347656 3.84375 -1.53125 4.09375 -1.8125 C 4.34375 -2.101562 4.507812 -2.476562 4.59375 -2.9375 C 4.6875 -3.394531 4.671875 -3.925781 4.546875 -4.53125 C 4.421875 -5.132812 4.222656 -5.628906 3.953125 -6.015625 C 3.691406 -6.398438 3.382812 -6.671875 3.03125 -6.828125 C 2.6875 -6.992188 2.3125 -7.035156 1.90625 -6.953125 C 1.507812 -6.867188 1.1875 -6.679688 0.9375 -6.390625 C 0.6875 -6.097656 0.519531 -5.722656 0.4375 -5.265625 C 0.351562 -4.804688 0.375 -4.273438 0.5 -3.671875 C 0.625 -3.066406 0.816406 -2.570312 1.078125 -2.1875 C 1.335938 -1.800781 1.640625 -1.53125 1.984375 -1.375 C 2.335938 -1.21875 2.710938 -1.179688 3.109375 -1.265625 Z M 3.109375 -1.265625 "/></g></g></g><g fill="#f4eeea" fill-opacity="1"><g transform="translate(215.848528, 290.096372)"><g><path d="M 1.0625 -4.640625 C 2.019531 -4.929688 2.773438 -4.972656 3.328125 -4.765625 C 3.878906 -4.554688 4.253906 -4.132812 4.453125 -3.5 C 4.566406 -3.113281 4.578125 -2.738281 4.484375 -2.375 C 4.398438 -2.007812 4.203125 -1.679688 3.890625 -1.390625 C 3.578125 -1.109375 3.15625 -0.890625 2.625 -0.734375 C 2.15625 -0.585938 1.675781 -0.53125 1.1875 -0.5625 C 0.707031 -0.59375 0.296875 -0.695312 -0.046875 -0.875 L 0.125 -1.5 C 0.425781 -1.34375 0.78125 -1.242188 1.1875 -1.203125 C 1.59375 -1.171875 2.007812 -1.21875 2.4375 -1.34375 C 2.988281 -1.519531 3.375 -1.773438 3.59375 -2.109375 C 3.820312 -2.453125 3.875 -2.832031 3.75 -3.25 C 3.613281 -3.707031 3.335938 -4 2.921875 -4.125 C 2.503906 -4.257812 1.894531 -4.207031 1.09375 -3.96875 L -0.34375 -3.53125 L -1.015625 -7.015625 L 2.65625 -8.125 L 2.84375 -7.5 L -0.21875 -6.578125 L 0.1875 -4.375 Z M 1.0625 -4.640625 "/></g></g></g><g fill="#f4eeea" fill-opacity="1"><g transform="translate(223.881901, 287.508539)"><g><path d="M 1.015625 -0.328125 C 0.878906 -0.273438 0.742188 -0.28125 0.609375 -0.34375 C 0.472656 -0.40625 0.378906 -0.507812 0.328125 -0.65625 C 0.273438 -0.800781 0.273438 -0.941406 0.328125 -1.078125 C 0.390625 -1.210938 0.488281 -1.304688 0.625 -1.359375 C 0.757812 -1.410156 0.894531 -1.40625 1.03125 -1.34375 C 1.175781 -1.28125 1.273438 -1.175781 1.328125 -1.03125 C 1.378906 -0.882812 1.375 -0.742188 1.3125 -0.609375 C 1.25 -0.472656 1.148438 -0.378906 1.015625 -0.328125 Z M 1.015625 -0.328125 "/></g></g></g><g fill="#f4eeea" fill-opacity="1"><g transform="translate(228.481224, 285.76424)"><g><path d="M 3.046875 -1.3125 C 2.554688 -1.082031 2.054688 -1.007812 1.546875 -1.09375 C 1.046875 -1.1875 0.570312 -1.425781 0.125 -1.8125 C -0.3125 -2.207031 -0.679688 -2.738281 -0.984375 -3.40625 C -1.285156 -4.070312 -1.4375 -4.695312 -1.4375 -5.28125 C -1.445312 -5.863281 -1.316406 -6.367188 -1.046875 -6.796875 C -0.773438 -7.234375 -0.394531 -7.566406 0.09375 -7.796875 C 0.582031 -8.015625 1.078125 -8.082031 1.578125 -8 C 2.078125 -7.914062 2.546875 -7.679688 2.984375 -7.296875 C 3.429688 -6.910156 3.804688 -6.382812 4.109375 -5.71875 C 4.410156 -5.050781 4.5625 -4.421875 4.5625 -3.828125 C 4.570312 -3.242188 4.441406 -2.734375 4.171875 -2.296875 C 3.910156 -1.859375 3.535156 -1.53125 3.046875 -1.3125 Z M 2.765625 -1.921875 C 3.128906 -2.085938 3.40625 -2.335938 3.59375 -2.671875 C 3.78125 -3.015625 3.863281 -3.414062 3.84375 -3.875 C 3.832031 -4.34375 3.695312 -4.859375 3.4375 -5.421875 C 3.1875 -5.984375 2.890625 -6.421875 2.546875 -6.734375 C 2.203125 -7.054688 1.84375 -7.253906 1.46875 -7.328125 C 1.09375 -7.410156 0.722656 -7.367188 0.359375 -7.203125 C -0.015625 -7.035156 -0.296875 -6.78125 -0.484375 -6.4375 C -0.671875 -6.101562 -0.75 -5.703125 -0.71875 -5.234375 C -0.695312 -4.773438 -0.5625 -4.265625 -0.3125 -3.703125 C -0.0507812 -3.140625 0.242188 -2.695312 0.578125 -2.375 C 0.910156 -2.0625 1.265625 -1.863281 1.640625 -1.78125 C 2.015625 -1.707031 2.390625 -1.753906 2.765625 -1.921875 Z M 2.765625 -1.921875 "/></g></g></g><g fill="#f4eeea" fill-opacity="1"><g transform="translate(237.055402, 281.712168)"><g><path d="M 4.6875 -4.796875 L 3.46875 -4.109375 L 4.390625 -2.515625 L 3.765625 -2.15625 L 2.84375 -3.75 L -0.5625 -1.796875 L -0.8125 -2.25 L 0.09375 -8.109375 L 0.796875 -8.515625 L -0.078125 -2.8125 L 2.5625 -4.328125 L 1.765625 -5.71875 L 2.359375 -6.0625 L 3.15625 -4.671875 L 4.375 -5.359375 Z M 4.6875 -4.796875 "/></g></g></g><g fill="#f4eeea" fill-opacity="1"><g transform="translate(245.132767, 276.89784)"><g><path d="M 0.921875 -0.5625 C 0.796875 -0.476562 0.660156 -0.445312 0.515625 -0.46875 C 0.367188 -0.5 0.25 -0.582031 0.15625 -0.71875 C 0.0703125 -0.84375 0.046875 -0.976562 0.078125 -1.125 C 0.109375 -1.269531 0.1875 -1.382812 0.3125 -1.46875 C 0.425781 -1.539062 0.554688 -1.5625 0.703125 -1.53125 C 0.847656 -1.507812 0.960938 -1.4375 1.046875 -1.3125 C 1.140625 -1.175781 1.171875 -1.035156 1.140625 -0.890625 C 1.109375 -0.742188 1.035156 -0.632812 0.921875 -0.5625 Z M 0.921875 -0.5625 "/></g></g></g><g fill="#f4eeea" fill-opacity="1"><g transform="translate(249.195291, 274.15079)"><g><path d="M 3.8125 -3.734375 L 4.203125 -3.21875 L 0.3125 -0.234375 L 0 -0.640625 L 0.578125 -4.671875 C 0.640625 -5.179688 0.644531 -5.578125 0.59375 -5.859375 C 0.539062 -6.148438 0.429688 -6.40625 0.265625 -6.625 C 0.015625 -6.945312 -0.289062 -7.113281 -0.65625 -7.125 C -1.019531 -7.144531 -1.410156 -6.992188 -1.828125 -6.671875 C -2.472656 -6.171875 -2.820312 -5.578125 -2.875 -4.890625 L -3.53125 -4.921875 C -3.507812 -5.347656 -3.378906 -5.753906 -3.140625 -6.140625 C -2.910156 -6.535156 -2.585938 -6.894531 -2.171875 -7.21875 C -1.597656 -7.65625 -1.046875 -7.867188 -0.515625 -7.859375 C 0.015625 -7.847656 0.457031 -7.609375 0.8125 -7.140625 C 1.03125 -6.847656 1.175781 -6.519531 1.25 -6.15625 C 1.332031 -5.789062 1.328125 -5.304688 1.234375 -4.703125 L 0.765625 -1.390625 Z M 3.8125 -3.734375 "/></g></g></g><g fill="#f4eeea" fill-opacity="1"><g transform="translate(255.910413, 268.890382)"><g><path d="M 2.5 -2.1875 C 2.09375 -1.820312 1.632812 -1.601562 1.125 -1.53125 C 0.625 -1.457031 0.101562 -1.535156 -0.4375 -1.765625 C -0.976562 -2.003906 -1.492188 -2.394531 -1.984375 -2.9375 C -2.472656 -3.46875 -2.804688 -4.007812 -2.984375 -4.5625 C -3.171875 -5.125 -3.203125 -5.65625 -3.078125 -6.15625 C -2.960938 -6.65625 -2.703125 -7.085938 -2.296875 -7.453125 C -1.898438 -7.816406 -1.445312 -8.03125 -0.9375 -8.09375 C -0.4375 -8.164062 0.078125 -8.082031 0.609375 -7.84375 C 1.148438 -7.613281 1.664062 -7.234375 2.15625 -6.703125 C 2.644531 -6.160156 2.984375 -5.609375 3.171875 -5.046875 C 3.359375 -4.492188 3.390625 -3.96875 3.265625 -3.46875 C 3.148438 -2.976562 2.894531 -2.550781 2.5 -2.1875 Z M 2.046875 -2.671875 C 2.347656 -2.941406 2.535156 -3.265625 2.609375 -3.640625 C 2.679688 -4.023438 2.632812 -4.4375 2.46875 -4.875 C 2.3125 -5.3125 2.023438 -5.757812 1.609375 -6.21875 C 1.191406 -6.664062 0.769531 -6.988281 0.34375 -7.1875 C -0.0703125 -7.382812 -0.46875 -7.460938 -0.84375 -7.421875 C -1.21875 -7.390625 -1.554688 -7.238281 -1.859375 -6.96875 C -2.160156 -6.695312 -2.347656 -6.367188 -2.421875 -5.984375 C -2.503906 -5.597656 -2.460938 -5.1875 -2.296875 -4.75 C -2.140625 -4.320312 -1.851562 -3.882812 -1.4375 -3.4375 C -1.019531 -2.976562 -0.597656 -2.644531 -0.171875 -2.4375 C 0.242188 -2.238281 0.640625 -2.160156 1.015625 -2.203125 C 1.398438 -2.242188 1.742188 -2.398438 2.046875 -2.671875 Z M 2.046875 -2.671875 "/></g></g></g><g fill="#f4eeea" fill-opacity="1"><g transform="translate(262.810623, 262.406525)"><g><path d="M 3.125 -4.328125 L 3.59375 -3.890625 L 0.265625 -0.28125 L -0.109375 -0.625 L -0.234375 -4.703125 C -0.253906 -5.210938 -0.316406 -5.601562 -0.421875 -5.875 C -0.523438 -6.144531 -0.675781 -6.375 -0.875 -6.5625 C -1.164062 -6.832031 -1.492188 -6.945312 -1.859375 -6.90625 C -2.222656 -6.863281 -2.582031 -6.644531 -2.9375 -6.25 C -3.488281 -5.65625 -3.734375 -5.007812 -3.671875 -4.3125 L -4.328125 -4.25 C -4.378906 -4.664062 -4.320312 -5.082031 -4.15625 -5.5 C -4 -5.925781 -3.742188 -6.335938 -3.390625 -6.734375 C -2.898438 -7.265625 -2.390625 -7.566406 -1.859375 -7.640625 C -1.328125 -7.722656 -0.847656 -7.566406 -0.421875 -7.171875 C -0.160156 -6.929688 0.0351562 -6.632812 0.171875 -6.28125 C 0.304688 -5.9375 0.382812 -5.453125 0.40625 -4.828125 L 0.515625 -1.5 Z M 3.125 -4.328125 "/></g></g></g><g fill="#f4eeea" fill-opacity="1"><g transform="translate(268.49663, 256.068215)"><g><path d="M -1.796875 -4.390625 C -1.171875 -5.179688 -0.578125 -5.648438 -0.015625 -5.796875 C 0.546875 -5.953125 1.085938 -5.828125 1.609375 -5.421875 C 1.929688 -5.171875 2.160156 -4.867188 2.296875 -4.515625 C 2.441406 -4.171875 2.46875 -3.796875 2.375 -3.390625 C 2.28125 -2.984375 2.066406 -2.5625 1.734375 -2.125 C 1.421875 -1.726562 1.0625 -1.398438 0.65625 -1.140625 C 0.25 -0.890625 -0.144531 -0.738281 -0.53125 -0.6875 L -0.765625 -1.296875 C -0.429688 -1.347656 -0.0859375 -1.472656 0.265625 -1.671875 C 0.617188 -1.878906 0.929688 -2.15625 1.203125 -2.5 C 1.566406 -2.957031 1.742188 -3.390625 1.734375 -3.796875 C 1.722656 -4.210938 1.546875 -4.554688 1.203125 -4.828125 C 0.816406 -5.117188 0.414062 -5.195312 0 -5.0625 C -0.40625 -4.9375 -0.867188 -4.539062 -1.390625 -3.875 L -2.3125 -2.6875 L -4.859375 -5.15625 L -2.5 -8.171875 L -2 -7.765625 L -3.96875 -5.25 L -2.359375 -3.671875 Z M -1.796875 -4.390625 "/></g></g></g></svg>